<?xml version="1.0" encoding="UTF-8"?>
<!DOCTYPE svg PUBLIC "-//W3C//DTD SVG 1.1//EN" "http://www.w3.org/Graphics/SVG/1.1/DTD/svg11.dtd">
<!-- Creator: CorelDRAW 2020 (64-Bit) -->
<svg xmlns="http://www.w3.org/2000/svg" xml:space="preserve" width="500px" height="500px" version="1.1" style="shape-rendering:geometricPrecision; text-rendering:geometricPrecision; image-rendering:optimizeQuality; fill-rule:evenodd; clip-rule:evenodd"
viewBox="0 0 500 500"
>

 <g id="Layer_x0020_1">
  <metadata id="CorelCorpID_0Corel-Layer"/>
  <rect  width="500" height="500" style="fill:none"/>
  <g id="_3112709666496">
   <path style="fill:currentColor;" d="M27.82 341.94c12.85,8.6 15.61,7.66 30.65,7.66l0 104.38c0,16.34 -13.8,21.3 -23.25,15.59 -10.05,-6.07 -7.4,-22.04 -7.4,-37.61 0,-30.01 0,-60.02 0,-90.02zm45.97 83.31l0 -75.65 30.64 0c0,11.73 -1.2,44.35 0.96,53.63l-23.74 16.48c-2.95,1.96 -5.23,3.78 -7.86,5.54zm393.6 -241.33l4.79 0 0 288.26 -402.22 0c4.91,-9.28 3.83,-14.26 3.83,-27.77l38.31 -26.82c2.9,0.78 5.66,3.71 8.91,5.46 12.88,6.94 31.13,2.76 39.77,-10.4 6.39,-9.73 4.95,-17.26 4.95,-32.41 3.49,-1.85 5.63,-3.78 9.19,-6.13l75.08 -52.29c8.08,-5.35 63.24,-44.95 67.04,-45.96 1.01,2.11 2.8,9.3 2.87,12.45l59.38 0c0.16,-7.21 3.83,-12.39 3.83,-20.11 4.08,-0.34 8.85,-2.53 12.32,-3.96l11.06 -5.31c2.41,-1.24 2.12,-1.14 4.69,0.23 5.24,2.8 10.8,7.83 15.98,9.04l40.46 -39.99c-1.28,-4.71 -6.06,-10.75 -8.91,-15.61 -3.01,-5.14 -0.18,-4.44 4.71,-16.35 1.43,-3.48 3.62,-8.23 3.96,-12.33zm-235.59 44.05l39.99 40.46c6.04,-1.59 11.12,-6.58 16.21,-9.28 3.69,-1.95 4.18,-0.61 7.96,1.37 2.68,1.4 6.88,2.41 8.63,4.8 -4.62,1.23 -132.64,91.6 -138.86,95.77 0,-16.45 2.43,-38.58 -3.17,-50.47 -11.5,-24.41 -31.26,-22.31 -50.46,-22.31l0 -53.63 48.84 0c27.17,0 55.09,-34.7 72.78,-44.06l7.35 16.68c2.81,5.94 -7.08,11.28 -9.27,20.67zm-77.57 -8.61l-57.46 0 0 84.27c20.85,0 53.63,-5.47 53.63,24.9l0 64.16c0,21.68 -25.54,23.87 -29.95,6.01 -3.2,-12.96 3.41,-48.22 -2.97,-57.36 -5.63,-8.08 -10.04,-7.07 -22.62,-7.07 -13.91,0.01 -46.83,2.53 -56.94,-4.35 -5.85,-3.98 -10.1,-11.2 -10.1,-20.54l0 -55.55c0,-20.17 8.86,-38.93 24.94,-48.81 28.51,-17.51 82.57,-3.26 100.45,-9.67 4.24,-1.53 7.32,-4.42 11.01,-7.19l31.74 -23.8c3.82,-2.86 6.59,-4.92 10.4,-7.8 3.39,-2.58 7.66,-6.16 13,-6.16 6.37,0 11.19,2.53 13.4,6.71 6.78,12.8 -8.63,20.07 -19.28,28.6l-11.23 8.88c-16.55,13.24 -28.04,24.77 -48.02,24.77zm-103.42 -76.62c0,-40.91 57.1,-52.65 73.09,-15.63 8.7,20.14 -0.78,42.48 -19.16,50.42 -27.11,11.71 -53.93,-9.15 -53.93,-34.79zm201.1 -67.03l22.76 -23.22c3.56,1 10.45,6.15 15.55,8.85 4.2,-2.22 7.79,-4.75 12.33,-6.82 6.65,-3.06 14,-6.09 21.82,-7.87 5.93,-1.35 3.87,1.66 7.01,-12.15 2.07,-9.07 -1.63,-6.68 32.58,-6.68 3.73,0 3.99,7.09 5.41,13.75 1.38,6.44 -0.03,2.86 12.92,7.19 5.17,1.73 8.91,3.11 13.83,5.32 4.45,2 8.72,5.07 12.85,7.26 3.86,-2.04 11.7,-7.65 15.32,-8.62l23.22 22.75c-1,3.56 -6.15,10.46 -8.85,15.56 2.22,4.2 4.75,7.79 6.82,12.33 3.06,6.65 6.09,14 7.87,21.82 1.16,5.1 -0.41,4.12 4.27,5.3 2.43,0.62 5.29,1.12 7.88,1.7 9.07,2.07 6.68,-1.63 6.68,32.59 0,3.73 -7.09,3.99 -13.75,5.41 -4.6,0.98 -3.8,0.11 -4.93,4.64 -0.92,3.71 -1.31,5.41 -2.26,8.27 -4.64,13.87 -6.59,15.37 -12.58,26.69 2.64,4.99 7.81,11.85 8.62,15.32l-22.75 23.22c-3.86,-1.2 -11.7,-6.81 -15.56,-8.85 -12.76,6.75 -17.34,10.85 -34.15,14.68 -5.92,1.36 -3.86,-1.65 -7,12.15 -2.07,9.08 1.63,6.68 -32.59,6.68 -3.73,0 -3.99,-7.09 -5.41,-13.74 -1.37,-6.45 0.03,-2.86 -12.91,-7.2 -13.87,-4.64 -15.37,-6.58 -26.69,-12.57 -2.56,1.35 -4.52,2.54 -7.26,4.23 -3.02,1.87 -4.42,3.54 -8.06,4.39l-23.22 -22.76c1.2,-3.86 6.81,-11.69 8.85,-15.55 -22.46,-42.46 -10.53,-23.9 -10.53,-47.88 0,-9.45 -4.32,-15.23 -10.21,-20.44 -1.93,-1.71 -1.48,-1.53 -3.81,-2.89 -7.75,-4.51 -5.93,-0.3 -8.96,-4.45 4.4,-2.11 11.29,-2.17 15.43,-3.72 3.79,-1.42 2.55,-1.63 3.56,-6.02 0.74,-3.26 1.23,-4.49 2.19,-7.38 1.56,-4.67 3.15,-9.19 5.37,-13.79 2.02,-4.19 4.85,-8.2 6.96,-12.18 -1.35,-2.56 -2.54,-4.53 -4.23,-7.26l-4.39 -8.06zm64.17 -43.1c-4.36,0.36 -15.66,5.02 -20.26,7.54 -11.34,6.21 -10.27,-4.39 -23.79,-7.54l-40.46 39.99c1.28,4.71 6.05,10.75 8.9,15.61 3.02,5.13 0.18,4.44 -4.71,16.35 -1.43,3.48 -3.61,8.23 -3.96,12.32 -7.72,0 -12.9,3.67 -20.11,3.83l0 15.33c-6.32,0.52 -15.19,8.28 -19.83,11.76l-37.21 27.91c-9.87,7.5 -11.34,5.34 -27.23,5.34 8.94,-13.35 15.32,-15.66 15.32,-41.18 0,-26.1 -24.66,-50.76 -50.76,-50.76l-5.74 0c-26.1,0 -50.76,24.66 -50.76,50.76 0,11.64 1.03,19.92 6.87,29.52 4.24,6.96 8.37,11.38 14.2,16.45 -20.52,4.78 -44.05,34.26 -44.05,59.37l0 213.56c0,15.37 15.08,28.73 27.77,28.73l447.23 0 0 -366.79c-7.07,-0.58 -12.99,-3.83 -20.11,-3.83 -0.34,-4.09 -2.53,-8.84 -3.96,-12.32l-5.39 -10.97c-2.62,-5.75 7.2,-11.55 9.35,-20.76l-39.99 -40.46c-9.77,2.65 -15.47,12.3 -20.9,9.5 -6.25,-3.21 -16.4,-8.68 -23.38,-9.26 0,-7.72 -3.67,-12.9 -3.83,-20.11l-59.38 0c-0.16,7.21 -3.83,12.39 -3.83,20.11z"/>
   <path style="fill:currentColor;" d="M272.98 150.4c0,-9.72 2.9,-22.45 7.02,-31.29 8.11,-17.37 20.93,-30.19 38.31,-38.3 42.85,-20.01 94.42,5.22 105.76,52.58 9.87,41.2 -17.58,81.94 -57.46,91.49 -40.27,9.64 -81.56,-16.19 -91.48,-57.47 -0.91,-3.75 -2.15,-13.01 -2.15,-17.01zm-15.32 -3.83c0,29.46 7.6,48.19 26.13,68.68l12.03 10c31.08,22.81 75.77,22.96 107,0.41 9.13,-6.59 10.17,-8.56 16.93,-15.64 5.17,-5.42 9.46,-12.91 12.86,-19.7 15.71,-31.43 10.21,-74.88 -12.39,-99.05 -6.94,-7.43 -6.84,-8.5 -17.4,-16.12 -4.87,-3.52 -8.61,-5.45 -13.94,-8.08 -28.95,-14.27 -66.47,-10.72 -92.51,8.08 -2.24,1.61 -4,2.85 -5.91,4.63 -1.3,1.21 -1.6,1.67 -2.98,2.77 -16.69,13.28 -29.82,41.71 -29.82,64.02z"/>
   <path style="fill:currentColor;" d="M318.95 152.32c-0.41,-2.15 1.55,-11.25 2.26,-13.06 5.61,-14.27 23.28,-23.62 39.53,-17.24 10.71,4.2 18.08,14.74 19.3,26.74 2.9,28.65 -40.47,47.02 -57.59,15.39l-3.5 -11.83zm-15.32 -5.75l0 7.66c0,20.52 21.62,42.14 42.14,42.14 11.53,0 21.05,-0.75 30.79,-8.47l10.95 -11.07c7.08,-9.31 8.06,-18.73 8.06,-30.26 0,-20.51 -21.63,-42.14 -42.14,-42.14 -9.97,0 -14.92,-0.15 -24.29,4.44 -3.84,1.88 -9.58,5.89 -12.38,8.69 -6.63,6.63 -13.13,19.02 -13.13,29.01z"/>
   <path style="fill:currentColor;" d="M207.86 368.75c0.33,3.88 6.3,11.85 8.62,13.41 2.67,-0.71 4.1,-2.4 6.51,-4.03l97.88 -67.8c-2.7,-5.1 -6.09,-8.62 -8.62,-13.4l-84.27 58.42c-4.33,3.07 -16.66,12.48 -20.12,13.4z"/>
   <path style="fill:currentColor;" d="M180.09 388.86c1.29,5.55 6.2,7.93 7.66,13.41 4.64,-2.45 9.1,-5.73 13.41,-8.62 -2.46,-4.64 -5.73,-9.1 -8.62,-13.41 -4.28,2.87 -8.22,5.79 -12.45,8.62z"/>
   <polygon style="fill:currentColor;" points="441.53,395.57 456.86,395.57 456.86,380.24 441.53,380.24 "/>
   <polygon style="fill:currentColor;" points="89.11,456.86 104.43,456.86 104.43,441.53 89.11,441.53 "/>
   <polygon style="fill:currentColor;" points="150.4,456.86 165.73,456.86 165.73,441.53 150.4,441.53 "/>
   <polygon style="fill:currentColor;" points="441.53,426.21 456.86,426.21 456.86,410.89 441.53,410.89 "/>
   <polygon style="fill:currentColor;" points="119.76,456.86 135.08,456.86 135.08,441.53 119.76,441.53 "/>
   <polygon style="fill:currentColor;" points="441.53,456.86 456.86,456.86 456.86,441.53 441.53,441.53 "/>
  </g>
 </g>
</svg>
